<?xml version="1.0" standalone="no"?><!DOCTYPE svg PUBLIC "-//W3C//DTD SVG 1.1//EN" "http://www.w3.org/Graphics/SVG/1.1/DTD/svg11.dtd"><svg t="1683977399674" class="icon" viewBox="0 0 1024 1024" version="1.1" xmlns="http://www.w3.org/2000/svg" p-id="2180" width="400" height="400" xmlns:xlink="http://www.w3.org/1999/xlink"><path d="M511.999846 0c282.767275 0 511.999846 229.232571 511.999847 511.999846s-229.232571 511.999846-511.999847 511.999847S0 794.767122 0 511.999846 229.232571 0 511.999846 0z" fill="#E2574C" p-id="2181"></path><path d="M255.836083 955.238113a509.409127 509.409127 0 0 0 252.999604 68.67966h6.328318c92.159972-0.5632 178.483146-25.528312 252.999605-68.67966V501.780329H255.836083v453.457784z" fill="#E4C755" p-id="2182"></path><path d="M255.836083 955.238113a508.804967 508.804967 0 0 0 97.157091 43.458547l415.160196-414.433155v-82.483176H255.836083v453.457784z" fill="#D7BB50" p-id="2183"></path><path d="M255.836083 955.238113A509.429607 509.429607 0 0 0 511.999846 1023.999693c42.311667 0 83.394535-5.232638 122.716124-14.909436V634.83885h-378.879887v320.399263z" fill="#F4F5F5" p-id="2184"></path><path d="M255.836083 955.238113a508.804967 508.804967 0 0 0 97.157091 43.458547l281.722796-281.231275v-82.626535h-378.879887v320.399263z" fill="#E6E7E7" p-id="2185"></path><path d="M393.420682 808.857357H255.836083v30.945271H393.420682c8.929277 0 16.179195-6.932478 16.179195-15.482875s-7.249918-15.462395-16.179195-15.462396z m-30.719991 61.439982H255.836083v30.945271H362.700691c8.929277 0 16.179195-6.932478 16.179195-15.482876s-7.249918-15.462395-16.179195-15.462395z" fill="#C0C3C5" p-id="2186"></path><path d="M256.163763 706.457388h229.078971c9.031677 0 16.363515 7.659518 16.363516 17.090555v17.090555c0 9.431037-7.331838 17.080315-16.363516 17.080315H256.163763V706.457388z" fill="#39A895" p-id="2187"></path><path d="M243.650487 532.53104h536.698719c4.485119 0 8.130558 3.430399 8.130557 7.659518v15.329275c0 4.229119-3.635199 7.659518-8.130557 7.659518H243.650487c-4.485119 0-8.130558-3.430399-8.130558-7.659518v-15.329275c0-4.229119 3.635199-7.659518 8.130558-7.659518z" fill="#EED470" p-id="2188"></path><path d="M383.303565 256.092083h257.238963c13.752316 0 24.903673 11.775996 24.903672 26.306552v35.08223H358.399892v-35.08223c0-14.520316 11.151357-26.306552 24.903673-26.306552z" fill="#E5E5E5" p-id="2189"></path><path d="M434.50355 256.092083h-51.199985c-13.752316 0-24.903673 11.775996-24.903673 26.306552v35.08223h51.199985v-35.08223c0-14.520316 11.151357-26.306552 24.903673-26.306552z" fill="#C9C9C9" p-id="2190"></path><path d="M264.693681 307.240868H758.988572c27.514872 0 49.817585 22.722553 49.817585 50.749425v118.415324c0 14.018556-11.151357 25.374712-24.913912 25.374712H239.790008c-13.762556 0-24.913913-11.356157-24.913912-25.374712V357.990293c0-28.026872 22.302713-50.749425 49.817585-50.749425z" fill="#DEDEDE" p-id="2191"></path><path d="M419.839874 501.780329h20.479994V307.240868h-20.479994v194.539461z m40.959988 0h20.479994V307.240868h-20.479994v194.539461z m40.959987 0h20.479994V307.240868h-20.479994v194.539461z m40.959988 0h20.479994V307.240868h-20.479994v194.539461z m40.959988-194.539461v194.549701h20.479994V307.240868h-20.479994z" fill="#C7C7C7" p-id="2192"></path><path d="M399.35988 555.519833v-15.329275c0-4.229119 3.635199-7.659518 8.130558-7.659518h-163.839951c-4.485119 0-8.130558 3.430399-8.130558 7.659518v15.329275c0 4.229119 3.635199 7.659518 8.130558 7.659518h163.839951c-4.495359 0-8.130558-3.430399-8.130558-7.659518z" fill="#CCB660" p-id="2193"></path><path d="M276.316077 476.405617V357.990293c0-28.026872 22.302713-50.749425 49.807345-50.749425h-61.439981c-27.514872 0-49.807345 22.722553-49.807345 50.749425v118.415324c0 14.018556 11.151357 25.374712 24.913912 25.374712h61.439982c-13.762556 0-24.913913-11.356157-24.913913-25.374712z" fill="#C7C7C7" p-id="2194"></path></svg>